<?xml version="1.0" encoding="utf-8"?>
<!-- Generator: Adobe Illustrator 15.1.0, SVG Export Plug-In  -->
<!DOCTYPE svg PUBLIC "-//W3C//DTD SVG 1.1//EN" "http://www.w3.org/Graphics/SVG/1.1/DTD/svg11.dtd" [
	<!ENTITY ns_flows "http://ns.adobe.com/Flows/1.0/">
]>
<svg version="1.1"
	 xmlns="http://www.w3.org/2000/svg" xmlns:xlink="http://www.w3.org/1999/xlink" xmlns:a="http://ns.adobe.com/AdobeSVGViewerExtensions/3.0/"
	 x="0px" y="0px" width="369px" height="369px" viewBox="-8.263 -54.058 369 369" enable-background="new -8.263 -54.058 369 369"
	 xml:space="preserve">
<defs>
</defs>
<path fill="#740000" d="M281.06,71.166c-14.88-11.252-31.088-22.045-48.473-32.083c-17.377-10.029-34.829-18.682-52.003-25.943
	c-17.186,7.266-34.645,15.906-52.03,25.943c-17.382,10.038-33.594,20.831-48.47,32.079c-2.302,18.509-3.547,37.947-3.547,58.02
	c0,20.07,1.245,39.505,3.547,58.017c14.876,11.248,31.088,22.042,48.47,32.079c17.389,10.038,34.852,18.685,52.037,25.943
	c17.172-7.257,34.624-15.915,51.996-25.943c17.385-10.037,33.593-20.834,48.473-32.081c2.301-18.51,3.547-37.945,3.547-58.015
	C284.607,109.109,283.361,89.671,281.06,71.166z"/>
<path fill="#C42A2A" d="M0,209.139c0,0,9.414-2.729,59.483,51.246c0,0,15.036-49.209,69.144-37.668
	c30.951,6.425,41.064-17.13,46.773-36.495c10.119-30.939,23.307-36.121,28.902-36.417c0,0,42.246-5.843,57.923-7.521
	c15.683-1.683,32.179-19.24,38.192-40.403c6.016-21.167,22.422-45.513,57.562-38.379c0,0-29.412-41.278-46.064-63.165
	c0,0-44.923-7.537-69.755,48.658c-19.521,42.914-60.848,32.284-60.848,32.284s-30.348-10.022-53.662,33.492
	c-23.319,43.511-34.748,41.882-52.339,36.63C57.715,146.146,27.505,146.008,0,209.139z"/>
<path fill="#F7D3AF" d="M344.459,44.656c0,0-39.573-9.776-63.788,39.131c-24.227,48.9-62.859,40.571-62.859,40.571
	s-30.045-11.82-49.866,29.2c-19.814,41.025-39.086,42.095-72.843,41.358c-33.751-0.732-52.163,48.164-52.163,48.164
	c-1.561-1.574-16.892-16.226-16.892-16.226s20.854-60.35,88.048-49.687c23.965,4.022,34.09-30.617,39.889-39.504
	c5.801-8.88,13.427-43.321,66.644-33.773c30.053,4.425,50.319-35.588,50.319-35.588s20.58-51.324,60.913-41.037L344.459,44.656z"/>
</svg>
